<?xml version="1.0" encoding="UTF-8" standalone="no"?>
<svg
   xmlns:dc="http://purl.org/dc/elements/1.1/"
   xmlns:cc="http://creativecommons.org/ns#"
   xmlns:rdf="http://www.w3.org/1999/02/22-rdf-syntax-ns#"
   xmlns:svg="http://www.w3.org/2000/svg"
   xmlns="http://www.w3.org/2000/svg"
   viewBox="0 0 222 49.333332"
   height="49.333332"
   width="222"
   xml:space="preserve"
   id="svg2"
   version="1.1"><metadata
     id="metadata8"><rdf:RDF><cc:Work
         rdf:about=""><dc:format>image/svg+xml</dc:format><dc:type
           rdf:resource="http://purl.org/dc/dcmitype/StillImage" /></cc:Work></rdf:RDF></metadata><defs
     id="defs6" /><g
     transform="matrix(1.3333333,0,0,-1.3333333,0,49.333333)"
     id="g10"><g
       transform="scale(0.1)"
       id="g12"><path
         id="path14"
         style="fill:#231f20;fill-opacity:1;fill-rule:nonzero;stroke:none"
         d="m 1535,174 -11,-28.004 h 21 l -11,-25 h -114 l 10,25 h 23 l 36,81.008 h -24 l 8,25 h 154 c 27,0 35,-4.004 38,-14.004 1,-12 -3,-19 -7,-29 -6,-14 -20,-36 -49,-35 h -74 z m 39,25 c 11,0 13,5 14,7 2,5 3,7 5,11.004 1,2.996 1,10 -8,10 -8,0 -26,0 -26,0 L 1547,199 c 0,0 22,0 27,0 v 0" /><path
         id="path16"
         style="fill:#231f20;fill-opacity:1;fill-rule:nonzero;stroke:none"
         d="m 369,120.996 11,25 h 23 l 36,81.008 h -21 l 11,25 H 591 C 599,250 609,246 613,237.004 625,216 609,195 602.004,176 591,153 574,125.996 546,123 l -11,-2.004 H 369 Z m 132,25 c 7,0 9,2.004 15,7.004 10,12 27,53 28,65 1,5 -4,9.004 -10,9.004 -10,0 -26.996,0 -26.996,0 L 471,145.996 c 0,0 19,0 30,0 v 0" /><path
         id="path18"
         style="fill:#231f20;fill-opacity:1;fill-rule:nonzero;stroke:none"
         d="m 1307,120.996 c -16,0 -27,0 -42,1.008 -13,0.996 -27,5.996 -32,17.996 -7,19.004 2,31 10,48 15,30 22,51 46,59.004 20,7.996 44,5.996 67,6.996 22,0 43,0 64,-3 11,-2 24,-6 28,-18.996 3,-15 -7,-31.004 -9,-37.004 -13,-27.996 -14,-29.004 -25,-47 -10,-15 -31,-23.996 -46,-25 -18,-2.004 -40,-2.004 -58,-2.004 h -3 z m 51,45 c 7,15.004 14,27.004 20,43.004 2,6 7,22 -22,23.004 -28,0 -35,-14.004 -38,-21.004 -4,-11 -17,-33.996 -19,-43 -6,-20.996 11,-22.004 19,-22.004 0,0 30,-2.996 40,20 v 0" /><path
         id="path20"
         style="fill:#231f20;fill-opacity:1;fill-rule:nonzero;stroke:none"
         d="m 813,227.004 c 0,0 -20.996,-55 -35.996,-79.004 C 765,127.004 741,122.004 718,120 c -24,-0.996 -49,-2 -72,2.004 -10,2 -20,12 -22,22 -1.996,8 1,15 4,20.996 9.004,20 26,62.004 26,62.004 h -21.996 l 10,25 h 115 l -10,-25 H 725 L 698,165 c -0.996,-5 -0.996,-10 3,-14.004 8,-6.992 22,-5.996 32,-3.992 9.004,2.996 17,10.996 21,18.992 l 26,61.008 h -21 l 11,25 h 75.996 l -10.996,-25 h -22 v 0" /><path
         id="path22"
         style="fill:#231f20;fill-opacity:1;fill-rule:nonzero;stroke:none"
         d="M 1037,227.004 990.996,120.996 H 937.004 L 895,201 870.996,145.996 h 21.008 l -10,-23.992 -80,-1.008 10.996,25 h 25 l 34.004,81.008 H 850 l 9.004,25 h 81.992 L 980,174 l 23,53.004 h -20.996 l 10,25 H 1069 l -9,-25 h -23 v 0" /><path
         id="path24"
         style="fill:#231f20;fill-opacity:1;fill-rule:nonzero;stroke:none"
         d="m 1168,227.004 -34,-81.008 h 37 L 1205,184 h 23 l -28,-63.004 h -173 l 12,25 h 23 l 35,81.008 h -22 l 9,25 h 117 l -10,-25 h -23 v 0" /><path
         id="path26"
         style="fill:#ec1c24;fill-opacity:1;fill-rule:nonzero;stroke:none"
         d="M 103,87.0039 C 38,87.0039 0,138 0,184 0,230 38,282.004 102.004,282.004 95,288 6,370 6,370 L 324,183 9,0 103,87.0039 v 0" /><path
         id="path28"
         style="fill:#ffffff;fill-opacity:1;fill-rule:nonzero;stroke:none"
         d="m 116,94.0039 c 50,0 90,40.9961 90,89.9961 0,50 -40,90 -90,90 -50,0 -90,-40 -90,-90 0,-49 40,-89.9961 90,-89.9961 v 0" /><path
         id="path30"
         style="fill:#231f20;fill-opacity:1;fill-rule:nonzero;stroke:none"
         d="M 1135,40.9961 1140,53 h -12 l 15,35 h 10 V 75 h 12 l 11,25.996 h -84 L 1079,75 h 13 l 11,13 h 9 l -16,-35 h -10 l -6,-12.0039 h 55 v 0" /><path
         id="path32"
         style="fill:#231f20;fill-opacity:1;fill-rule:nonzero;stroke:none"
         d="M 1184,100.996 1179,90 h 10 l -16,-37 h -10 l -5,-12.0039 h 53 L 1216,53 h -12 l 17,37 h 11 l 5,10.996 h -53 v 0" /><path
         id="path34"
         style="fill:#231f20;fill-opacity:1;fill-rule:nonzero;stroke:none"
         d="m 1508,75 c 8,-2 7,-9.0039 7,-10.9961 C 1512,55.9961 1512,48 1501,43 c -11,-3.9961 -32,-3.9961 -45,0 -3,0 -6,2.9961 -9,2 l -4,-2.9961 h -26 L 1428,63 h 29 c -2,-2.0039 -3,-5 -1,-7.0039 5,-5 18,-3.9922 21,-1.9922 2,0.9961 3,3 3,3.9961 1,2.9961 -1,4.0039 -3,5 -13,2.9961 -27,2 -38,7.9961 C 1436,73 1435,75 1435,78 c 3,7.9961 7,17.9961 16,21.0039 13,5.0001 30,5.0001 44,0.9961 3,-0.9961 6,-2 7,-2.9961 1,0.9961 2,2.9961 2,2.9961 h 24 l -9,-20 h -27 c 1,3 3,7.0039 -2,9.0039 -7,0.9961 -19,3 -20,-4.0039 -1,-5.9961 9,-5.9961 19,-7 4,-0.9961 9,-0.9961 19,-3 v 0" /><path
         id="path36"
         style="fill:#231f20;fill-opacity:1;fill-rule:nonzero;stroke:none"
         d="M 1285,89.0039 1279,78 h 13 c 3,0 5,1.0039 7,5 2,2.9961 1,6.0039 -1,6.0039 h -13 z m 41,11.9921 c 13,0 9,-9.9999 8,-12.996 L 1324,72.0039 C 1321,68 1317,68 1312,68 c 0,0 -2,0 -1,-0.9961 0,-1.0078 3,-2.0039 3,-2.0039 3,0 2,-2 3,-5 0,-4.0039 3,-5 5,-5 4,0 6,5 6,9.0039 h 14 c 0,-5 -1,-8.0078 -2,-11.0039 h 2 l 17,37 h -10 l 5,10.996 h 79 l -11,-24.9999 h -10 L 1410,90 h -19 l -6,-14.0039 h 18 L 1398,65 h -18 l -5,-12 h 20 l 13,14.0039 h 10 l -11,-26.0078 h -82 C 1320,40 1315,40 1312,40 c -7,0 -17,2.0039 -22,5 -3,3 -4,10.9961 -5,15 0,4.0039 -1,5.9961 -5,5.9961 h -5 L 1268,53 h 10 l -6,-12.0039 h -54 L 1224,53 h 11 l 17,37 h -13 l 6,10.996 h 81 v 0" /><path
         id="path38"
         style="fill:#231f20;fill-opacity:1;fill-rule:nonzero;stroke:none"
         d="M 131,148 H 40 l 10,21.004 h 12.0039 l 15,33 H 65 L 74,223 h 93.004 c 18.117,0 27.012,-11.172 27.012,-25.734 0,-6.328 -1.68,-13.297 -5.016,-20.262 -11.516,-27.461 -27.734,-29.035 -49.355,-29.035 -1.379,0 -2.77,0.008 -4.184,0.019 -1.465,0 -2.949,0.012 -4.461,0.012 z m -28.996,21.004 H 123 c 8,0 18,0 25,14.996 1.164,2.625 1.734,5.254 1.734,7.656 0,5.828 -3.363,10.348 -9.734,10.348 h -24 l -13.996,-33 v 0" /></g></g></svg>