<?xml version="1.0" encoding="UTF-8" standalone="no"?>
<svg
   xmlns:dc="http://purl.org/dc/elements/1.1/"
   xmlns:cc="http://creativecommons.org/ns#"
   xmlns:rdf="http://www.w3.org/1999/02/22-rdf-syntax-ns#"
   xmlns:svg="http://www.w3.org/2000/svg"
   xmlns="http://www.w3.org/2000/svg"
   viewBox="0 0 258.66666 258.66666"
   height="258.66666"
   width="258.66666"
   xml:space="preserve"
   id="svg2"
   version="1.1"><metadata
     id="metadata8"><rdf:RDF><cc:Work
         rdf:about=""><dc:format>image/svg+xml</dc:format><dc:type
           rdf:resource="http://purl.org/dc/dcmitype/StillImage" /></cc:Work></rdf:RDF></metadata><defs
     id="defs6" /><g
     transform="matrix(1.3333333,0,0,-1.3333333,0,258.66667)"
     id="g10"><g
       transform="scale(0.1)"
       id="g12"><path
         id="path14"
         style="fill:#ffffff;fill-opacity:1;fill-rule:evenodd;stroke:none"
         d="M 2.59766,1933.23 H 1930.16 V 5.66797 H 2.59766 V 1933.23" /><path
         id="path16"
         style="fill:#231f20;fill-opacity:1;fill-rule:evenodd;stroke:none"
         d="M 121.168,777.512 H 1845.12 V 1068.34 H 121.168 V 777.512" /><path
         id="path18"
         style="fill:#ffffff;fill-opacity:1;fill-rule:evenodd;stroke:none"
         d="M 1524.5,834.453 H 121.168 V 816.938 H 1518.37 l 6.13,17.515" /><path
         id="path20"
         style="fill:#ffffff;fill-opacity:1;fill-rule:evenodd;stroke:none"
         d="m 640.629,1000.89 -46.43,-70.077 c 0,0 3.504,36.792 3.504,45.55 0.875,7.008 0,24.527 -16.644,24.527 -15.77,0 -72.707,0 -72.707,0 L 461.047,871.246 h 56.941 l 34.164,93.731 -7.007,-93.731 h 50.808 l 62.195,91.977 -34.164,-91.977 h 56.938 l 48.18,129.644 h -88.473" /><path
         id="path22"
         style="fill:#ffffff;fill-opacity:1;fill-rule:evenodd;stroke:none"
         d="m 950.727,873.875 c -3.504,-0.879 -24.524,-5.258 -48.176,-5.258 -40.297,-1.75 -76.211,14.895 -76.211,43.801 -0.879,51.684 50.805,79.715 89.348,86.723 16.648,3.499 49.933,7.879 82.343,0 L 978.762,953.59 c -5.258,12.262 -19.274,12.262 -25.407,12.262 -13.136,0.875 -25.402,-3.504 -33.285,-7.008 -19.273,-8.758 -35.918,-36.789 -8.761,-48.176 14.894,-6.137 34.164,-0.879 54.312,1.75 l -14.894,-38.543" /><path
         id="path24"
         style="fill:#ffffff;fill-opacity:1;fill-rule:evenodd;stroke:none"
         d="m 1534.14,871.246 h -62.2 l 47.31,129.644 h 63.07 l -48.18,-129.644" /><path
         id="path26"
         style="fill:#ffffff;fill-opacity:1;fill-rule:evenodd;stroke:none"
         d="m 779.91,871.246 h -62.195 l 47.305,129.644 h 63.07 L 779.91,871.246" /><path
         id="path28"
         style="fill:#ffffff;fill-opacity:1;fill-rule:evenodd;stroke:none"
         d="m 1118.92,1000.89 -16.64,-46.425 h -32.41 l 17.52,46.425 h -59.57 L 979.637,871.246 h 59.563 l 16.65,43.801 h 31.54 l -15.77,-43.801 h 59.56 l 48.18,129.644 h -60.44" /><path
         id="path30"
         style="fill:#ffffff;fill-opacity:1;fill-rule:evenodd;stroke:none"
         d="m 1407.12,914.172 31.54,86.718 h -61.32 l -47.3,-129.644 h 122.63 l 15.77,42.926 h -61.32" /><path
         id="path32"
         style="fill:#ffffff;fill-opacity:1;fill-rule:evenodd;stroke:none"
         d="m 1737.37,1000.89 -33.29,-89.347 c 0.88,8.758 2.63,44.676 3.51,64.82 0.87,8.762 -0.88,14.895 -5.26,19.274 -5.26,5.253 -11.39,5.253 -11.39,5.253 h -72.71 l -48.18,-129.644 h 53.44 l 33.29,91.977 -3.51,-91.977 h 88.48 l 48.18,129.644 h -52.56" /><path
         id="path34"
         style="fill:#ffffff;fill-opacity:1;fill-rule:evenodd;stroke:none"
         d="m 1238.93,906.285 5.25,14.016 h 68.34 l 11.38,32.414 h -68.33 l 5.26,14.012 h 71.83 l 12.27,34.163 H 1214.4 l -48.18,-129.644 h 133.16 l 12.26,35.039 h -72.71" /><path
         id="path36"
         style="fill:#100e0d;fill-opacity:1;fill-rule:evenodd;stroke:none"
         d="m 466.305,941.324 c 3.504,6.133 -0.875,17.52 -8.758,26.281 -7.008,8.758 -16.649,11.387 -17.524,15.766 9.637,19.269 -0.875,35.919 -15.765,42.929 0.875,8.76 -2.629,18.4 -10.512,24.52 3.504,7.89 7.883,29.79 -8.762,42.93 7.012,27.15 -21.019,42.92 -35.914,43.8 -7.007,5.25 -16.64,8.76 -29.785,9.63 9.641,14.02 7.008,32.41 -4.383,42.93 0.879,14.89 -9.632,28.91 -24.527,34.16 -5.254,12.26 -33.285,10.51 -35.914,-0.88 -16.641,-6.13 -26.277,-23.65 -24.523,-40.29 -9.641,-10.51 -9.641,-28.03 0,-40.3 -8.766,0.88 -21.028,-1.75 -28.911,-5.25 v 0 h -0.875 c -7.011,3.5 -14.019,5.25 -21.902,3.5 -1.75,1.75 -7.004,3.5 -10.508,4.38 -2.629,4.38 -6.137,7.89 -11.39,10.51 -1.754,7.89 -7.883,14.02 -14.016,16.65 0.875,6.13 -1.75,13.14 -3.504,16.64 -3.504,5.25 -2.625,14.02 -1.75,15.77 4.379,4.38 0.875,8.76 -0.875,10.51 -8.766,8.76 -17.523,4.38 -20.152,0 -8.758,15.77 -18.395,19.27 -23.649,17.52 -7.886,6.13 -19.2732,1.75 -19.2732,-5.26 -5.2578,-3.5 -8.7617,-5.25 -0.8789,-19.27 -1.75,-28.91 1.7539,-37.67 21.0271,-53.43 -6.136,-6.13 -8.761,-18.4 -3.508,-28.03 -1.75,-14.02 6.133,-28.04 15.774,-35.04 2.625,-20.15 21.894,-31.54 35.039,-34.17 8.758,-13.13 21.019,-19.27 33.285,-20.15 0.875,-6.13 2.629,-11.38 6.133,-16.64 -2.629,-11.39 -2.629,-21.899 0.875,-31.536 -8.758,-9.633 -12.262,-24.527 -7.883,-39.418 -10.516,-12.266 -14.016,-32.41 -7.008,-49.055 0,0 -2.629,-4.383 -4.383,-8.761 -7.007,-3.504 -14.011,-11.387 -17.515,-21.899 -3.504,-7.883 -1.754,-18.394 0,-27.156 -11.387,-9.637 -18.399,-34.164 1.75,-53.434 -4.379,-14.019 -14.016,-26.285 -25.402,-41.176 -7.883,-10.511 -9.637,-15.765 0,-28.031 7.003,-9.636 20.148,-17.519 31.535,-17.519 21.023,-0.875 35.914,3.504 37.664,19.273 1.754,8.758 -4.379,27.156 -4.379,31.535 -0.875,4.379 0.875,11.387 5.258,22.774 19.269,4.383 28.906,18.398 30.656,32.414 14.019,7.887 24.531,24.527 19.273,42.926 2.629,2.625 3.504,5.253 5.258,9.632 0,-7.882 5.254,-13.136 7.883,-18.394 -7.883,-20.149 2.625,-38.543 14.891,-46.426 -21.024,-30.664 1.753,-45.555 7.886,-51.684 7.883,-7.011 8.758,-20.148 21.024,-24.531 10.511,-3.504 43.801,0 49.929,14.016 1.754,3.504 3.504,7.883 1.754,10.515 0,10.508 -6.132,17.516 -17.519,24.524 -13.145,7.008 -13.145,5.254 -19.274,24.531 20.153,9.637 23.653,32.41 22.778,41.172 14.015,17.52 13.14,32.41 5.258,42.047 2.625,7.883 1.75,14.016 0,20.148 12.261,10.508 17.519,26.278 13.136,42.922 7.012,10.512 8.762,21.899 6.133,35.039 6.133,-9.636 15.77,-13.14 26.277,-13.14 0,0 0.879,-2.629 1.754,-4.379 -3.504,-6.133 -1.754,-13.137 6.133,-18.399 0.875,-3.5 2.629,-5.254 4.379,-7.004 0,-2.628 7.008,-14.015 14.891,-7.882 0.879,0 9.64,6.129 9.64,6.129 7.883,-6.129 25.399,-0.875 23.649,10.511" /><path
         id="path38"
         style="fill:#ffffff;fill-opacity:1;fill-rule:evenodd;stroke:none"
         d="m 384.84,999.141 c 21.898,1.749 42.922,26.279 22.773,45.559 -2.629,-4.39 -8.758,-8.77 -13.14,-10.52 -0.875,-9.63 -7.004,-17.52 -10.508,-21.9 0,-3.51 0.875,-12.26 0.875,-13.139" /><path
         id="path40"
         style="fill:#ffffff;fill-opacity:1;fill-rule:evenodd;stroke:none"
         d="m 420.754,1017.54 c -5.254,-14.02 -19.274,-21.903 -35.914,-24.532 -2.629,-11.387 12.262,-28.906 35.039,-18.399 16.641,7.012 22.777,33.291 0.875,42.931" /><path
         id="path42"
         style="fill:#ffffff;fill-opacity:1;fill-rule:evenodd;stroke:none"
         d="m 414.621,955.34 c -1.75,-1.75 -1.75,-6.129 0.879,-8.758 0,0.875 1.75,6.133 2.625,7.883 -0.875,1.754 -2.625,1.754 -3.504,0.875" /><path
         id="path44"
         style="fill:#ffffff;fill-opacity:1;fill-rule:evenodd;stroke:none"
         d="m 428.637,944.832 c -0.875,2.625 0,6.129 -4.379,7.004 -4.379,1.754 -4.379,-12.266 -1.75,-11.387 1.75,1.75 3.5,3.504 6.129,4.383" /><path
         id="path46"
         style="fill:#ffffff;fill-opacity:1;fill-rule:evenodd;stroke:none"
         d="m 434.77,943.074 c -6.133,-1.75 -10.512,-6.129 -7.883,-9.633 0.875,-1.753 1.75,-1.753 5.254,0.875 1.754,0.875 5.254,3.504 6.132,4.379 -0.878,2.629 -3.503,4.379 -3.503,4.379" /><path
         id="path48"
         style="fill:#ffffff;fill-opacity:1;fill-rule:evenodd;stroke:none"
         d="m 440.023,970.23 c -1.75,0.879 -5.253,3.504 -7.007,6.133 -4.379,-4.379 -14.012,-9.636 -18.395,-10.511 0.879,0 1.754,-4.379 2.629,-6.133 1.754,0 3.504,-1.75 5.258,-3.5 1.75,0.875 7.883,0 9.633,-6.133 2.629,-1.754 7.882,-4.379 9.636,-6.133 7.008,-8.762 12.266,-7.883 14.016,-6.133 6.133,4.379 -2.629,8.762 -7.008,14.895 -2.625,2.625 -9.637,12.262 -9.637,14.89 0,0.875 1.75,0 3.508,-1.753 0,-0.875 9.633,-12.262 14.891,-16.641 -4.383,14.891 -17.524,21.019 -17.524,21.019" /><path
         id="path50"
         style="fill:#ffffff;fill-opacity:1;fill-rule:evenodd;stroke:none"
         d="m 301.617,990.379 c 83.223,0.879 93.735,49.931 82.348,69.211 -25.406,-26.29 -110.379,-41.18 -152.426,-7.89 -7.883,-8.76 -18.398,-11.39 -27.156,-13.14 2.629,-24.52 47.305,-49.056 97.234,-48.181" /><path
         id="path52"
         style="fill:#ffffff;fill-opacity:1;fill-rule:evenodd;stroke:none"
         d="m 245.555,1094.63 c 1.75,-16.65 -5.258,-31.54 -8.762,-36.8 7.883,-6.13 23.652,-17.52 59.57,-18.39 54.313,-0.88 112.125,25.4 79.715,70.08 -14.015,-18.4 -83.219,-34.17 -130.523,-14.89" /><path
         id="path54"
         style="fill:#ffffff;fill-opacity:1;fill-rule:evenodd;stroke:none"
         d="m 173.723,1099.88 c 13.14,12.26 14.019,28.03 7.882,39.42 -1.75,1.75 -3.503,4.38 -6.128,6.13 -2.629,-22.77 -35.039,-40.29 -56.063,-25.4 7.883,-32.41 40.293,-33.29 54.309,-20.15" /><path
         id="path56"
         style="fill:#ffffff;fill-opacity:1;fill-rule:evenodd;stroke:none"
         d="m 200.004,1077.98 c 19.273,21.9 0,55.19 -8.758,56.94 6.129,-32.41 -26.281,-57.81 -55.191,-45.55 7.008,-20.15 41.172,-36.79 63.949,-11.39" /><path
         id="path58"
         style="fill:#ffffff;fill-opacity:1;fill-rule:evenodd;stroke:none"
         d="m 173.723,1057.83 c 16.644,-17.52 61.32,-16.64 63.949,24.53 1.75,28.03 -10.512,43.8 -29.785,49.05 22.777,-42.92 -4.379,-72.7 -34.164,-73.58" /><path
         id="path60"
         style="fill:#ffffff;fill-opacity:1;fill-rule:evenodd;stroke:none"
         d="m 208.762,1014.04 c -7.883,-47.313 55.187,-62.204 92.855,-61.325 63.949,2.625 77.965,33.285 74.461,51.675 -40.297,-31.531 -126.14,-28.027 -167.316,9.65" /><path
         id="path62"
         style="fill:#ffffff;fill-opacity:1;fill-rule:evenodd;stroke:none"
         d="m 241.172,914.172 c 34.164,-7.012 61.32,8.758 61.32,31.535 -16.64,0 -70.078,0.875 -95.48,35.914 -17.52,-24.527 3.504,-58.691 34.16,-67.449" /><path
         id="path64"
         style="fill:#ffffff;fill-opacity:1;fill-rule:evenodd;stroke:none"
         d="m 287.602,913.293 c -30.661,-15.766 -72.707,-4.379 -88.473,28.031 -22.777,-35.914 14.891,-68.328 42.922,-66.574 34.16,1.75 43.801,23.652 45.551,38.543" /><path
         id="path66"
         style="fill:#ffffff;fill-opacity:1;fill-rule:evenodd;stroke:none"
         d="m 192.996,894.023 c -10.516,-19.273 2.629,-40.296 16.641,-45.55 29.785,-11.391 49.933,7.882 48.183,21.898 -23.652,-5.258 -48.183,1.75 -64.824,23.652" /><path
         id="path68"
         style="fill:#ffffff;fill-opacity:1;fill-rule:evenodd;stroke:none"
         d="m 169.344,835.332 c -14.016,-11.387 -4.379,-42.047 16.644,-49.055 29.785,-10.515 42.922,9.633 44.676,20.145 -7.883,-1.75 -42.047,-8.758 -61.32,28.91" /><path
         id="path70"
         style="fill:#ffffff;fill-opacity:1;fill-rule:evenodd;stroke:none"
         d="m 207.887,843.215 c -15.766,7.887 -25.407,20.148 -26.282,36.793 -22.773,-22.778 -3.503,-58.692 17.524,-65.699 42.043,-14.895 56.937,21.023 53.434,31.535 -16.645,-11.391 -36.79,-7.008 -44.676,-2.629" /><path
         id="path72"
         style="fill:#ffffff;fill-opacity:1;fill-rule:evenodd;stroke:none"
         d="m 358.559,738.969 1.754,-0.875 c -3.504,-7.008 -28.911,-13.137 -39.422,-8.758 -12.266,6.129 -9.641,13.137 -17.524,20.148 -17.515,16.641 -14.89,23.649 -12.262,32.411 0.875,4.382 2.629,7.011 6.133,11.39 12.262,-4.379 17.52,-3.504 28.032,-0.875 0,-0.879 0,-3.504 0.875,-4.383 -7.883,-0.875 -14.895,-2.625 -14.895,-2.625 l 2.633,-6.136 c 0,0 6.129,1.754 14.015,2.629 0,0 0.875,-4.383 1.75,-6.133 -7.007,0 -13.136,-2.629 -13.136,-2.629 l 1.75,-5.254 c 0,0 9.636,2.625 16.64,1.75 7.008,-6.133 35.043,-13.137 21.028,-28.031 -5.254,-5.258 -18.399,-7.008 -28.91,-7.008 v -1.75 c 1.753,-2.629 21.027,-3.504 31.539,6.129" /><path
         id="path74"
         style="fill:#ffffff;fill-opacity:1;fill-rule:evenodd;stroke:none"
         d="m 345.418,829.199 c -7.012,-5.254 -17.52,-9.636 -29.785,-8.758 -14.891,0 -25.403,6.129 -34.16,15.766 -5.262,-26.281 11.386,-38.543 29.777,-39.418 33.293,-1.754 34.168,28.906 34.168,32.41" /><path
         id="path76"
         style="fill:#ffffff;fill-opacity:1;fill-rule:evenodd;stroke:none"
         d="m 314.758,826.57 c 35.918,-0.875 46.43,28.91 39.422,42.047 -20.153,-24.523 -66.578,-19.269 -76.215,11.391 -12.262,-21.903 7.887,-53.438 36.793,-53.438" /><path
         id="path78"
         style="fill:#ffffff;fill-opacity:1;fill-rule:evenodd;stroke:none"
         d="m 320.012,858.984 c 17.519,0 36.797,12.262 32.418,34.161 -20.153,-13.137 -45.559,-12.262 -63.075,0.878 -1.753,-2.628 -4.378,-7.007 -6.132,-8.761 2.629,-16.645 19.269,-26.278 36.789,-26.278" /><path
         id="path80"
         style="fill:#ffffff;fill-opacity:1;fill-rule:evenodd;stroke:none"
         d="m 298.113,920.301 c -0.875,-0.875 -1.75,-1.75 -2.629,-1.75 0,-6.133 -1.75,-14.02 -3.504,-19.274 24.532,-21.023 76.215,-7.882 72.711,35.039 -17.523,-17.519 -45.554,-21.898 -66.578,-14.015" /><path
         id="path82"
         style="fill:#ffffff;fill-opacity:1;fill-rule:evenodd;stroke:none"
         d="m 309.5,945.707 c 0,-7.887 -2.629,-14.894 -7.008,-21.023 31.535,-9.637 70.957,7.004 69.207,44.671 -10.511,-9.636 -29.789,-21.898 -62.199,-23.648" /><path
         id="path84"
         style="fill:#ffffff;fill-opacity:1;fill-rule:evenodd;stroke:none"
         d="m 150.949,1123.53 c 23.649,10.51 21.899,35.04 7.883,41.17 -3.504,-3.5 -2.625,-11.38 -2.625,-13.14 0,-3.5 -6.137,-6.13 -7.012,-4.38 -1.754,2.63 3.508,5.26 0.875,11.39 -1.75,5.26 4.383,7.88 4.383,16.64 0,5.26 -4.383,13.15 -4.383,14.9 -2.629,5.25 -2.629,14.89 0.879,19.27 -2.629,2.63 -6.133,5.25 -8.761,0 -4.379,-6.13 -2.629,-14.02 0,-20.15 0,-0.87 -4.379,0 -6.133,-7.01 l -1.75,-2.63 h -1.75 c -0.879,5.26 0.875,7.89 2.625,11.39 -0.875,0.88 -2.625,5.26 -2.625,13.14 -3.504,10.51 -11.387,20.15 -16.649,21.02 4.383,-7 12.266,-21.89 13.145,-23.65 1.75,-4.38 -1.754,-5.25 -1.754,-5.25 -6.129,12.26 -12.266,23.65 -17.524,28.9 -3.503,2.63 -7.007,4.38 -8.757,1.76 1.75,0 3.504,-1.76 5.254,-3.51 5.257,-7 16.648,-29.78 16.648,-29.78 0,0 -0.875,-0.88 -2.629,-0.88 -1.75,0 -3.504,3.51 -6.133,9.64 -3.508,5.26 -8.761,14.02 -11.39,16.65 -2.625,3.5 -4.3793,2.62 -6.1293,0.87 1.75,-2.63 3.5043,-6.13 3.5043,-8.76 4.379,1.75 9.632,-2.63 10.507,-7.01 0,-3.5 1.758,-14.89 4.383,-18.39 -0.875,0 -3.504,-1.75 -3.504,-1.75 -2.629,2.62 -4.382,14.89 -5.257,19.27 0,1.75 -0.875,3.5 -3.504,4.38 -1.75,0 -1.75,-0.88 -1.75,-1.76 -1.7543,-24.52 0,-30.66 21.902,-47.3 1.75,-0.87 3.504,-4.38 5.254,-7.88 1.754,-2.63 4.383,-7.01 9.637,-6.14 l 1.75,-1.75 c -4.379,-4.38 -11.387,-1.75 -13.137,0 -0.875,1.75 -4.379,7.01 -4.379,7.01 -15.773,-15.77 5.254,-37.67 28.906,-26.28" /><path
         id="path86"
         style="fill:#ffffff;fill-opacity:1;fill-rule:evenodd;stroke:none"
         d="m 175.477,784.523 c -8.762,-19.273 -17.52,-28.031 -27.157,-42.05 -7.007,-8.758 -4.379,-13.137 0,-19.27 8.762,-9.637 23.653,-14.894 35.039,-11.387 v 0.875 c -14.015,-0.875 -25.402,4.379 -31.535,13.141 l 0.879,0.875 c 15.766,-12.262 36.789,-8.758 44.672,-4.379 2.629,0.875 3.504,3.504 3.504,6.129 -0.875,7.008 -4.379,18.398 -5.254,24.531 -0.879,4.379 0.875,14.012 5.254,24.524 -7.008,-0.875 -21.024,0.879 -25.402,7.011" /><path
         id="path88"
         style="fill:#ffffff;fill-opacity:1;fill-rule:evenodd;stroke:none"
         d="m 379.582,1117.4 c 11.387,-7.88 13.141,-23.65 13.141,-29.78 11.386,21.9 -5.254,35.04 -14.016,37.67 1.754,-3.51 1.754,-7.01 0.875,-7.89" /><path
         id="path90"
         style="fill:#ffffff;fill-opacity:1;fill-rule:evenodd;stroke:none"
         d="m 396.227,1045.57 c 21.898,12.26 7.882,38.54 4.378,40.29 -0.875,-2.62 -3.503,-9.63 -11.386,-18.39 4.379,-5.26 7.008,-13.14 7.008,-21.9" /><path
         id="path92"
         style="fill:#ffffff;fill-opacity:1;fill-rule:evenodd;stroke:none"
         d="m 243.801,1102.51 c 15.769,-7.01 32.41,-9.64 49.058,-9.64 45.547,0 77.086,13.14 79.715,26.28 1.75,11.39 -19.269,18.4 -41.172,20.15 -3.504,-3.51 -7.886,-5.26 -9.636,-5.26 -0.875,0 -2.629,0.88 -0.875,1.75 3.504,1.76 7.007,5.26 3.504,11.39 2.625,0 10.507,3.51 11.386,17.52 0,11.39 -5.258,18.4 -10.511,21.9 0,0 -1.754,1.76 0,1.76 1.75,14.01 -7.883,25.4 -24.528,28.9 v 1.76 c 0.875,0 0.875,0.87 0.875,0.87 -0.875,3.5 -13.14,5.25 -18.394,0.88 -0.875,-0.88 2.629,-2.63 3.504,-2.63 1.75,0 2.628,-1.75 0.875,-1.75 -10.512,0.87 -28.032,-7.89 -28.032,-31.54 0.875,0 6.133,0.88 7.883,0.88 1.754,-0.88 0.875,-2.63 0,-2.63 -16.64,-0.88 -22.777,-29.78 -0.875,-39.42 0,0 1.75,-0.88 0,-1.75 -2.629,-1.75 -4.379,-5.26 -0.875,-7.89 1.75,0 2.625,-1.75 1.75,-2.63 0,-1.75 -2.629,-1.75 -4.379,0 -11.386,5.26 -24.527,2.63 -35.039,-0.87 7.883,-6.13 13.137,-16.64 15.766,-28.03" /><path
         id="path94"
         style="fill:#100e0d;fill-opacity:1;fill-rule:evenodd;stroke:none"
         d="m 129.926,1176.09 c -0.875,-0.88 -3.504,1.75 -6.133,3.5 -2.625,0.88 -6.133,0.88 -6.133,1.76 0,0 2.629,0.87 5.258,0.87 1.75,0 3.504,-0.87 5.254,-0.87 0.879,-1.76 2.629,-4.38 1.754,-5.26" /><path
         id="path96"
         style="fill:#100e0d;fill-opacity:1;fill-rule:evenodd;stroke:none"
         d="m 187.742,752.988 c -5.262,1.75 -13.144,2.625 -17.523,2.625 v 6.133 c 5.258,-0.875 13.14,-1.754 19.273,-3.504 l -1.75,-5.254" /><path
         id="path98"
         style="fill:#100e0d;fill-opacity:1;fill-rule:evenodd;stroke:none"
         d="m 191.246,764.375 c -7.887,2.625 -9.641,2.625 -18.398,3.504 v 5.254 c 9.632,0 12.265,0 20.148,-2.629 l -1.75,-6.129" /><path
         id="path100"
         style="fill:#100e0d;fill-opacity:1;fill-rule:evenodd;stroke:none"
         d="m 315.633,1163.83 c -0.875,0 -1.75,0 -2.625,-0.88 -15.77,2.63 -20.149,-0.88 -28.91,-0.88 0,0.88 0,2.63 -1.75,2.63 0,-0.87 -0.875,-1.75 -0.875,-1.75 -2.633,-3.5 -3.508,-5.25 -2.633,-6.13 0.875,-0.88 2.633,0.88 3.508,1.75 0.875,0 4.379,0 7.882,-1.75 2.629,-1.75 7.883,-8.76 13.137,-6.13 4.383,1.75 7.883,8.76 10.516,8.76 1.75,0 3.504,-0.88 3.504,0 0.875,0 -0.875,5.25 -1.754,4.38 z m -12.266,-10.51 c -5.254,-1.76 -7.883,4.38 -12.262,6.13 4.379,0.87 12.262,1.75 19.27,0.87 -1.75,-0.87 -6.129,-6.13 -7.008,-7" /><path
         id="path102"
         style="fill:#100e0d;fill-opacity:1;fill-rule:evenodd;stroke:none"
         d="m 309.5,1204.12 c -5.254,-0.87 -8.758,-7.88 -8.758,-16.64 0.875,-5.26 2.625,-10.51 6.129,-13.14 1.754,-0.88 3.504,-1.75 5.258,-1.75 5.258,0.87 9.637,7.88 8.762,16.64 0,5.25 -2.629,10.51 -5.258,12.26 -1.75,1.76 -3.504,2.63 -6.133,2.63" /><path
         id="path104"
         style="fill:#ffffff;fill-opacity:1;fill-rule:evenodd;stroke:none"
         d="m 316.512,1179.59 v 0 0 c 0.875,1.76 1.75,5.26 1.75,9.64 -0.875,4.38 -1.75,7.88 -4.379,10.51 -0.875,0.88 -2.633,0.88 -3.508,0.88 -4.379,0 -7.008,-6.14 -6.129,-13.14 0,-0.88 0,-0.88 0,-1.75 v 0 0 c 0.875,4.38 2.625,7.88 6.129,8.75 3.508,0 6.137,-4.37 6.137,-9.63 0,-1.75 0,-3.5 0,-5.26" /><path
         id="path106"
         style="fill:#100e0d;fill-opacity:1;fill-rule:evenodd;stroke:none"
         d="m 284.977,1203.25 c -5.262,-0.88 -9.641,-7.89 -9.641,-16.65 0,-5.25 1.754,-9.63 5.258,-13.14 1.754,-0.87 3.504,-1.75 6.133,-1.75 5.253,0 9.636,7.88 9.636,16.65 0,5.25 -1.754,9.63 -5.258,12.26 -1.75,1.75 -3.503,2.63 -6.128,2.63" /><path
         id="path108"
         style="fill:#ffffff;fill-opacity:1;fill-rule:evenodd;stroke:none"
         d="m 291.98,1180.47 v 0 0 c 0.879,2.63 1.754,5.26 1.754,7.89 -0.875,4.37 -1.754,7.88 -4.379,10.51 -0.878,0.87 -2.628,1.75 -4.378,0.87 -3.504,0 -7.012,-6.13 -7.012,-13.14 0,-2.62 0.875,-5.25 2.629,-7.01 0,-0.87 0,-0.87 0,-0.87 v 0.87 c -0.879,0.88 -0.879,1.76 -0.879,3.51 0,5.26 2.633,9.63 6.137,9.63 3.503,0 6.128,-4.37 6.128,-9.63 0,-0.88 0,-1.75 0,-2.63" /></g></g></svg>